<?xml version="1.0" encoding="utf-8"?>
<!-- Generator: Adobe Illustrator 25.2.0, SVG Export Plug-In . SVG Version: 6.00 Build 0)  -->
<svg version="1.1" id="Layer_1" xmlns="http://www.w3.org/2000/svg" xmlns:xlink="http://www.w3.org/1999/xlink" x="0px" y="0px"
	 viewBox="0 0 10.5 10.5" style="enable-background:new 0 0 10.5 10.5;" xml:space="preserve">
<style type="text/css">
	.st0{fill:#7A57D5;}
</style>
<path class="st0" d="M10.3,4.2H6.5L8,2.6C6.5,1.1,4,1.1,2.5,2.6C1,4.1,1,6.5,2.5,8C4,9.5,6.5,9.5,8,8c0.8-0.8,1.1-1.6,1.1-2.7h1.1
	c0,1.1-0.5,2.5-1.5,3.5c-2,1.9-5.1,1.9-7.1,0c-1.9-1.9-2-5.1,0-7s5.1-1.9,7,0l1.5-1.6V4.2 M5.5,3v2.4l1.9,1.2L7.1,7.2L4.7,5.8V3H5.5
	z"/>
</svg>
