<?xml version="1.0" encoding="utf-8"?>
<!-- Generator: Adobe Illustrator 25.2.0, SVG Export Plug-In . SVG Version: 6.00 Build 0)  -->
<svg version="1.1" id="Layer_1" xmlns="http://www.w3.org/2000/svg" xmlns:xlink="http://www.w3.org/1999/xlink" x="0px" y="0px"
	 viewBox="0 0 10.5 10.5" style="enable-background:new 0 0 10.5 10.5;" xml:space="preserve">
<style type="text/css">
	.st0{fill:#7A57D5;}
</style>
<path class="st0" d="M5.2,7c-1,0-1.8-0.8-1.8-1.8s0.8-1.8,1.8-1.8S7,4.3,7,5.2S6.2,7,5.2,7 M9,5.7c0-0.2,0-0.3,0-0.5s0-0.3,0-0.5
	l1.1-0.8c0.1-0.1,0.1-0.2,0.1-0.3l-1-1.7C9.1,1.8,9,1.7,8.9,1.8L7.6,2.3C7.3,2.1,7,1.9,6.7,1.8L6.5,0.4c0-0.1-0.1-0.2-0.3-0.2H4.2
	C4.1,0.2,4,0.3,3.9,0.4L3.8,1.8C3.4,1.9,3.2,2.1,2.9,2.3L1.6,1.8c-0.1,0-0.3,0-0.3,0.1l-1,1.7c-0.1,0.1,0,0.2,0.1,0.3l1.1,0.8
	c0,0.2,0,0.3,0,0.5s0,0.3,0,0.5L0.3,6.5C0.2,6.6,0.2,6.8,0.3,6.9l1,1.7c0.1,0.1,0.2,0.2,0.3,0.1l1.3-0.5c0.3,0.2,0.5,0.4,0.9,0.5
	L3.9,10c0,0.1,0.1,0.2,0.3,0.2h2.1c0.1,0,0.2-0.1,0.3-0.2l0.2-1.3C7,8.6,7.3,8.4,7.6,8.2l1.3,0.5c0.1,0,0.3,0,0.3-0.1l1-1.7
	c0.1-0.1,0-0.2-0.1-0.3L9,5.7z"/>
</svg>
