<?xml version="1.0" encoding="utf-8"?>
<!-- Generator: Adobe Illustrator 25.2.0, SVG Export Plug-In . SVG Version: 6.00 Build 0)  -->
<svg version="1.1" id="Layer_1" xmlns="http://www.w3.org/2000/svg" xmlns:xlink="http://www.w3.org/1999/xlink" x="0px" y="0px"
	 viewBox="0 0 10.9 10.9" style="enable-background:new 0 0 10.9 10.9;" xml:space="preserve">
<style type="text/css">
	.st0{fill:#7A57D5;}
</style>
<path class="st0" d="M5.5,0.5c-2.8,0-5,2.2-5,5c0,2.8,2.2,5,5,5s5-2.2,5-5S8.2,0.5,5.5,0.5 M7.2,3.5C7.6,3.5,8,3.8,8,4.2
	S7.6,5,7.2,5C6.8,5,6.5,4.6,6.5,4.2S6.8,3.5,7.2,3.5 M3.7,3.5c0.4,0,0.8,0.3,0.8,0.8S4.1,5,3.7,5S3,4.6,3,4.2S3.3,3.5,3.7,3.5
	 M5.5,8.2c-1.2,0-2.2-0.7-2.6-1.8H8C7.6,7.5,6.6,8.2,5.5,8.2z"/>
</svg>
